<svg width="200" height="100" viewBox="0 0 200 100" fill="none" xmlns="http://www.w3.org/2000/svg">
<g clip-path="url(#clip0_42_4)">
<path d="M177.66 12.8987C179.94 12.8987 181.14 13.0187 181.26 13.2587C181.38 13.4987 180.66 14.3987 179.1 15.9587L109.26 85.4387C108.54 86.1587 107.94 86.7587 107.46 87.2387C106.98 87.5987 106.56 87.8987 106.2 88.1387C105.72 88.2587 105.18 88.3787 104.58 88.4987C103.98 88.4987 103.2 88.4987 102.24 88.4987H97.56C96.6 88.4987 95.82 88.4987 95.22 88.4987C94.62 88.3787 94.14 88.2587 93.78 88.1387C93.3 87.8987 92.82 87.5987 92.34 87.2387C91.86 86.7587 91.26 86.1587 90.54 85.4387L20.7 16.6787C18.78 14.7587 17.88 13.6787 18 13.4387C18.12 13.0787 19.56 12.8987 22.32 12.8987H29.16C30.36 12.8987 31.32 12.9587 32.04 13.0787C32.76 13.0787 33.36 13.1987 33.84 13.4387C34.32 13.5587 34.8 13.8587 35.28 14.3387C35.76 14.6987 36.42 15.2987 37.26 16.1387L97.2 75.1787C98.52 76.4987 99.42 77.2187 99.9 77.3387C100.26 77.3387 101.04 76.7387 102.24 75.5387C106.92 70.8587 111.84 65.9987 117 60.9587C122.04 55.9187 127.2 50.8187 132.48 45.6587C137.64 40.4987 142.8 35.3987 147.96 30.3587C153.12 25.1987 158.04 20.2787 162.72 15.5987C164.16 14.2787 165.18 13.4987 165.78 13.2587C166.38 13.0187 167.76 12.8987 169.92 12.8987H177.66Z" fill="#F8A145"/>
</g>
<defs>
<clipPath id="clip0_42_4">
<rect width="200" height="100" fill="white"/>
</clipPath>
</defs>
</svg>
